HIERARCHY
ROOT root
{
	OFFSET	0	13.1	24.9
	CHANNELS 6  Xposition Yposition Zposition Xrotation Yrotation Zrotation
	JOINT spine_1
	{
		OFFSET	0	9.99999	0
		CHANNELS 3  Xrotation Yrotation Zrotation
		JOINT spine_2
		{
			OFFSET	0	112	-10
			CHANNELS 3  Xrotation Yrotation Zrotation
			JOINT spine_3
			{
				OFFSET	0	206.5	19.3
				CHANNELS 3  Xrotation Yrotation Zrotation
				JOINT spine_4
				{
					OFFSET	0	110.4	14.6
					CHANNELS 3  Xrotation Yrotation Zrotation
					JOINT neck_1
					{
						OFFSET	0	71.8	-50.3
						CHANNELS 3  Xrotation Yrotation Zrotation
						JOINT neck_2
						{
							OFFSET	0	86.2	-25.8
							CHANNELS 3  Xrotation Yrotation Zrotation
							JOINT head_ee
							{
								OFFSET	0	179.8	-8.7
								CHANNELS 3  Xrotation Yrotation Zrotation
								End Site
								{
									OFFSET	1	0	0
								}
							}
						}
					}
					JOINT left_clavicle
					{
						OFFSET	-43.2	22.4	-70.8
						CHANNELS 3  Xrotation Yrotation Zrotation
						JOINT left_shoulder
						{
							OFFSET	-93.9	-5.79999	48.7
							CHANNELS 3  Xrotation Yrotation Zrotation
							JOINT left_elbow
							{
								OFFSET	-291.4	-30.8	15.2
								CHANNELS 3  Xrotation Yrotation Zrotation
								JOINT left_lowarm_twist
								{
									OFFSET	-110.7	-3.89999	13.6
									CHANNELS 3  Xrotation Yrotation Zrotation
									JOINT left_hand
									{
										OFFSET	-110.7	-3.89999	13.6
										CHANNELS 3  Xrotation Yrotation Zrotation
										JOINT left_ee
										{
											OFFSET	-80.8	-5.10001	12.1
											CHANNELS 3  Xrotation Yrotation Zrotation
											End Site
											{
												OFFSET	1	0	0
											}
										}
									}
								}
							}
						}
					}
					JOINT right_clavicle
					{
						OFFSET	43.2	22.4	-70.8
						CHANNELS 3  Xrotation Yrotation Zrotation
						JOINT right_shoulder
						{
							OFFSET	93.9	-5.79999	48.7
							CHANNELS 3  Xrotation Yrotation Zrotation
							JOINT right_elbow
							{
								OFFSET	291.4	-30.8	15.2
								CHANNELS 3  Xrotation Yrotation Zrotation
								JOINT right_lowarm_twist
								{
									OFFSET	110.7	-3.89999	13.6
									CHANNELS 3  Xrotation Yrotation Zrotation
									JOINT right_hand
									{
										OFFSET	110.7	-3.89999	13.6
										CHANNELS 3  Xrotation Yrotation Zrotation
										JOINT right_ee
										{
											OFFSET	80.8	-5.10001	12.1
											CHANNELS 3  Xrotation Yrotation Zrotation
											End Site
											{
												OFFSET	1	0	0
											}
										}
									}
								}
							}
						}
					}
				}
			}
		}
	}
	JOINT left_hip
	{
		OFFSET	-82.8	-127.5	0.300001
		CHANNELS 3  Xrotation Yrotation Zrotation
		JOINT left_knee
		{
			OFFSET	-28.2	-396.7	2.2
			CHANNELS 3  Xrotation Yrotation Zrotation
			JOINT left_ankle
			{
				OFFSET	-11.7	-411.3	35.4
				CHANNELS 3  Xrotation Yrotation Zrotation
				JOINT left_toes
				{
					OFFSET	0	-60	-88.6
					CHANNELS 3  Xrotation Yrotation Zrotation
					JOINT left_foot_ee
					{
						OFFSET	-22.5	-16.5	-42.2
						CHANNELS 3  Xrotation Yrotation Zrotation
						End Site
						{
							OFFSET	1	0	0
						}
					}
				}
			}
		}
	}
	JOINT right_hip
	{
		OFFSET	82.8	-127.5	0.300001
		CHANNELS 3  Xrotation Yrotation Zrotation
		JOINT right_knee
		{
			OFFSET	28.2	-396.7	2.2
			CHANNELS 3  Xrotation Yrotation Zrotation
			JOINT right_ankle
			{
				OFFSET	11.7	-411.3	35.4
				CHANNELS 3  Xrotation Yrotation Zrotation
				JOINT right_toes
				{
					OFFSET	0	-60	-88.6
					CHANNELS 3  Xrotation Yrotation Zrotation
					JOINT right_foot_ee
					{
						OFFSET	22.5	-16.5	-42.2
						CHANNELS 3  Xrotation Yrotation Zrotation
						End Site
						{
							OFFSET	1	0	0
						}
					}
				}
			}
		}
	}
}
MOTION
Frames: 14
Frame Time: 0.02
3574.42 741.953 -1474.73 7.48130184874 65.3744262676 -6.51715166039 -0.100767 0.46723 1.29265 -0.0999196 0.384036 1.31976 -0.0904012 0.095969 1.37113 -0.0928899 0.31129 1.33878 -11.5932 12.4308 0.121691 -11.8808 23.4723 3.63077 -0.0 0.0 -0.0 -1.41554 9.71068 -1.30164 3.15918 -31.622 69.0939 2.94898 -55.5958 1.55493 29.3315 0.0865319 -3.70524 -0.948171 15.4499 0.452405 -0.0 0.0 -0.0 8.95337 0.192284 -17.5176 -23.9182 2.98139 -65.6014 0.43673 12.2076 -0.0467025 37.4699 0.224247 4.69706 0.664362 4.65477 -2.50485 0.0 0.0 0.0 -9.13825 40.099 2.17006 -0.875429 0.0350556 0.129771 25.8238 -16.2214 -3.71421 -17.9211 0.0 0.0 -0.0 0.0 -0.0 -0.661281 12.8388 1.15191 5.44069 0.261969 0.79328 17.5329 -1.94734 2.43102 -29.2615 0.0 0.0 0.0 0.0 0.0 
3574.42 741.953 -1474.73 7.38216876437 65.0232454969 -6.40794698568 -0.100767 0.46723 1.29265 -0.0999196 0.384036 1.31976 -0.0904012 0.095969 1.37113 -0.0928899 0.31129 1.33878 -11.5932 12.4308 0.121691 -11.8808 23.4723 3.63077 -0.0 0.0 -0.0 -1.41554 9.71068 -1.30164 3.15918 -31.622 69.0939 2.94898 -55.5958 1.55493 29.3315 0.0865319 -3.70524 -0.948171 15.4499 0.452405 -0.0 0.0 -0.0 8.95337 0.192284 -17.5176 -23.9182 2.98139 -65.6014 0.43673 12.2076 -0.0467025 37.4699 0.224247 4.69706 0.664362 4.65477 -2.50485 0.0 0.0 0.0 -9.13825 40.099 2.17006 -0.875429 0.0350556 0.129771 25.8238 -16.2214 -3.71421 -17.9211 0.0 0.0 -0.0 0.0 -0.0 -0.661281 12.8388 1.15191 5.44069 0.261969 0.79328 17.5329 -1.94734 2.43102 -29.2615 0.0 0.0 0.0 0.0 0.0 
3574.42 741.953 -1474.73 7.25498221065 64.5570404839 -6.26737228891 -0.100767 0.46723 1.29265 -0.0999196 0.384036 1.31976 -0.0904012 0.095969 1.37113 -0.0928899 0.31129 1.33878 -11.5932 12.4308 0.121691 -11.8808 23.4723 3.63077 -0.0 0.0 -0.0 -1.41554 9.71068 -1.30164 3.15918 -31.622 69.0939 2.94898 -55.5958 1.55493 29.3315 0.0865319 -3.70524 -0.948171 15.4499 0.452405 -0.0 0.0 -0.0 8.95337 0.192284 -17.5176 -23.9182 2.98139 -65.6014 0.43673 12.2076 -0.0467025 37.4699 0.224247 4.69706 0.664362 4.65477 -2.50485 0.0 0.0 0.0 -9.13825 40.099 2.17006 -0.875429 0.0350556 0.129771 25.8238 -16.2214 -3.71421 -17.9211 0.0 0.0 -0.0 0.0 -0.0 -0.661281 12.8388 1.15191 5.44069 0.261969 0.79328 17.5329 -1.94734 2.43102 -29.2615 0.0 0.0 0.0 0.0 0.0 
3559.15834493 725.936 -1499.82951363 7.58620676986 65.0952599256 -7.47196451326 -0.00721569 0.225753 1.64278 -0.0057223 0.120776 1.65382 -0.0014631 -0.229603 1.64225 -0.00522551 0.0326048 1.6579 -9.16506 12.6341 -1.38354 -9.30311 24.6642 1.69176 -0.0 0.0 -0.0 -1.36853 10.2452 -1.14036 7.67861 -29.5994 69.4288 3.25574 -58.1863 1.81195 30.2978 0.057057 -3.82514 -1.18235 19.4238 0.77247 -0.0 0.0 -0.0 9.6891 4.93017 -19.1582 -25.2725 3.7323 -66.1952 0.414687 11.6086 -0.0421542 36.2787 0.169986 4.55475 0.811486 5.69751 -3.05879 0.0 0.0 0.0 -8.63879 32.8378 0.487608 -6.19887 0.205141 0.928765 22.8072 -13.526 -3.27705 -11.5632 0.0 0.0 -0.0 0.0 -0.0 -1.95369 11.557 1.68811 4.43107 0.207667 0.647967 26.5723 -0.424311 3.5305 -29.915 0.0 0.0 0.0 0.0 0.0 
3559.50394647 725.936 -1500.03642304 7.36983199654 64.3162712334 -7.2326507183 -0.00721569 0.225753 1.64278 -0.0057223 0.120776 1.65382 -0.0014631 -0.229603 1.64225 -0.00522551 0.0326048 1.6579 -9.16506 12.6341 -1.38354 -9.30311 24.6642 1.69176 -0.0 0.0 -0.0 -1.36853 10.2452 -1.14036 7.67861 -29.5994 69.4288 3.25574 -58.1863 1.81195 30.2978 0.057057 -3.82514 -1.18235 19.4238 0.77247 -0.0 0.0 -0.0 9.6891 4.93017 -19.1582 -25.2725 3.7323 -66.1952 0.414687 11.6086 -0.0421542 36.2787 0.169986 4.55475 0.811486 5.69751 -3.05879 0.0 0.0 0.0 -8.63879 32.8378 0.487608 -6.19887 0.205141 0.928765 22.8072 -13.526 -3.27705 -11.5632 0.0 0.0 -0.0 0.0 -0.0 -1.95369 11.557 1.68811 4.43107 0.207667 0.647967 26.5723 -0.424311 3.5305 -29.915 0.0 0.0 0.0 0.0 0.0 
3550.36081344 735.824 -1521.86837547 8.345045868 67.7924927354 -9.30641966672 0.0218829 -0.193483 1.89423 0.0238245 -0.313604 1.87809 0.0140913 -0.701168 1.77032 0.00995535 -0.41283 1.8588 -9.05473 14.0534 -2.00163 -9.21839 27.7439 1.42196 -0.0 0.0 -0.0 -4.50096 13.4667 -5.84863 6.91716 -27.7919 72.0648 4.57177 -66.1539 2.97859 31.2519 0.0259677 -3.94304 -1.22654 22.2535 1.76062 -0.0 0.0 -0.0 10.5369 11.3693 -20.9949 -21.451 4.79862 -67.2887 0.320477 9.02091 -0.025281 35.3849 0.131227 4.44726 0.984609 6.49131 -3.89369 0.0 0.0 0.0 -7.82714 26.8975 -0.623862 -8.25467 0.250833 1.24092 16.3935 -7.04608 -2.3483 -6.57209 0.0 0.0 -0.0 0.0 -0.0 -2.69676 8.70894 1.39943 3.63987 0.166912 0.533452 22.7791 -3.61346 3.07414 -27.4702 0.0 0.0 0.0 0.0 0.0 
3551.30387646 735.824 -1522.33793771 7.95974570862 66.6634554388 -8.88856785259 0.0218829 -0.193483 1.89423 0.0238245 -0.313604 1.87809 0.0140913 -0.701168 1.77032 0.00995535 -0.41283 1.8588 -9.05473 14.0534 -2.00163 -9.21839 27.7439 1.42196 -0.0 0.0 -0.0 -4.50096 13.4667 -5.84863 6.91716 -27.7919 72.0648 4.57177 -66.1539 2.97859 31.2519 0.0259677 -3.94304 -1.22654 22.2535 1.76062 -0.0 0.0 -0.0 10.5369 11.3693 -20.9949 -21.451 4.79862 -67.2887 0.320477 9.02091 -0.025281 35.3849 0.131227 4.44726 0.984609 6.49131 -3.89369 0.0 0.0 0.0 -7.82714 26.8975 -0.623862 -8.25467 0.250833 1.24092 16.3935 -7.04608 -2.3483 -6.57209 0.0 0.0 -0.0 0.0 -0.0 -2.69676 8.70894 1.39943 3.63987 0.166912 0.533452 22.7791 -3.61346 3.07414 -27.4702 0.0 0.0 0.0 0.0 0.0 
3546.26923038 734.834 -1536.29289036 5.95552847352 64.0723001513 -7.24021761242 0.0553592 -0.124106 2.11019 0.0577994 -0.258101 2.09802 0.0491209 -0.691912 1.99743 0.0437422 -0.367844 2.08159 -9.29001 15.7458 -2.17021 -9.53358 31.0594 1.76928 -0.0 0.0 -0.0 -4.42227 15.4356 -5.2633 7.93059 -25.3349 72.258 4.89712 -67.5735 3.2778 29.6096 0.0782576 -3.7398 -1.52817 22.7596 0.242764 -0.0 0.0 -0.0 10.68 13.8877 -21.2508 -19.9192 5.06504 -67.4766 0.300816 8.47578 -0.0222906 34.6375 0.100107 4.35693 1.16645 6.55568 -5.09727 0.0 0.0 0.0 -6.77697 26.1076 -0.861193 -10.8956 0.293043 1.64392 17.7762 -0.696974 -2.4754 -3.47167 0.0 0.0 -0.0 0.0 -0.0 -3.66694 8.83036 0.360656 8.53763 0.444429 1.23284 22.6214 -2.28664 3.06012 -26.6594 0.0 0.0 0.0 0.0 0.0 
3547.6628725 729.815 -1543.32444459 5.33865655388 60.7263469937 -6.86701165915 0.0648277 0.141332 2.11055 0.067306 0.00677641 2.11526 0.068627 -0.435662 2.06994 0.0626624 -0.103362 2.11275 -8.00363 16.0079 -2.84946 -8.0867 31.9044 0.769423 -0.0 0.0 -0.0 -4.28714 14.9542 -5.1541 8.51237 -24.3019 72.1655 4.59037 -66.2397 2.99561 29.8666 0.07046 -3.7717 -1.59181 22.8498 -0.0827288 -0.0 0.0 -0.0 10.8953 15.3869 -21.6783 -19.0127 5.17375 -67.5537 0.267138 7.53847 -0.0175992 34.6452 0.100422 4.35786 1.1642 6.58228 -5.07077 0.0 0.0 0.0 -6.41364 25.6565 -0.859548 -11.8289 0.303511 1.78674 19.2147 0.709832 -2.64975 -2.78989 0.0 0.0 -0.0 0.0 -0.0 -4.38037 9.05171 0.331581 8.02069 0.412319 1.16015 23.7353 -0.931756 3.19936 -25.878 0.0 0.0 0.0 0.0 0.0 
3551.10704445 729.815 -1544.57015896 4.90968797703 57.8873311403 -6.36831455239 0.0648277 0.141332 2.11055 0.067306 0.00677641 2.11526 0.068627 -0.435662 2.06994 0.0626624 -0.103362 2.11275 -8.00363 16.0079 -2.84946 -8.0867 31.9044 0.769423 -0.0 0.0 -0.0 -4.28714 14.9542 -5.1541 8.51237 -24.3019 72.1655 4.59037 -66.2397 2.99561 29.8666 0.07046 -3.7717 -1.59181 22.8498 -0.0827288 -0.0 0.0 -0.0 10.8953 15.3869 -21.6783 -19.0127 5.17375 -67.5537 0.267138 7.53847 -0.0175992 34.6452 0.100422 4.35786 1.1642 6.58228 -5.07077 0.0 0.0 0.0 -6.41364 25.6565 -0.859548 -11.8289 0.303511 1.78674 19.2147 0.709832 -2.64975 -2.78989 0.0 0.0 -0.0 0.0 -0.0 -4.38037 9.05171 0.331581 8.02069 0.412319 1.16015 23.7353 -0.931756 3.19936 -25.878 0.0 0.0 0.0 0.0 0.0 
3525.81861175 716.38 -1579.88377102 6.61481729311 58.4548554644 -7.98832720265 -0.0986943 0.197095 2.36045 -0.0955956 0.0465364 2.3682 -0.0921567 -0.45622 2.32434 -0.0996864 -0.0835165 2.36719 -1.42293 16.3725 -6.98078 -0.303882 34.9999 -5.67895 -0.0 0.0 -0.0 -3.99874 13.1071 -5.08737 7.71151 -23.1041 72.1421 3.01387 -56.1743 1.60866 30.7395 0.042907 -3.87979 -1.80638 23.799 -0.869107 -0.0 0.0 -0.0 11.8259 22.5595 -23.3304 -12.3436 5.43323 -68.8856 0.20595 5.82539 -0.0104787 35.3895 0.131425 4.44783 1.22567 6.86963 -5.36566 0.0 0.0 0.0 -4.98605 25.9069 -2.69692 -19.1374 0.304905 2.90733 30.0066 6.49574 -3.88884 1.22312 -0.0 -0.0 -0.0 0.0 -0.0 -7.21556 10.6348 0.79509 4.38153 0.205069 0.640815 33.2191 4.65842 4.29285 -20.9396 0.0 0.0 0.0 0.0 0.0 
3515.67723484 714.509 -1602.29156491 6.71514520123 60.0888708946 -8.85859657607 -0.110851 0.241877 2.58945 -0.107124 0.0766698 2.59959 -0.101776 -0.476247 2.55677 -0.110892 -0.0666186 2.59987 -0.50913 16.3907 -7.42182 0.808273 35.2812 -6.4938 -0.0 0.0 -0.0 -4.05837 13.6278 -5.07336 7.24686 -21.5311 71.8012 2.6092 -52.2627 1.28017 30.2218 0.0594478 -3.81573 -1.90003 24.3691 -1.12979 -0.0 0.0 -0.0 12.3887 23.0808 -24.5747 -8.18145 7.03799 -69.7341 0.172214 4.87621 -0.00733269 35.3702 0.130603 4.44549 1.41663 7.02355 -6.59616 0.0 0.0 0.0 -4.16088 26.1687 -4.2396 -21.942 0.267513 3.336 31.0796 7.6556 -4.004 1.68117 -0.0 -0.0 -0.0 0.0 -0.0 -8.94818 11.1383 0.434381 6.16088 0.302269 0.896351 36.2165 4.36492 4.58129 -20.0143 0.0 0.0 0.0 0.0 0.0 
3482.01351913 706.334 -1619.0202519 12.6428800024 69.9443684568 -16.7644192453 -0.334508 0.452309 3.49564 -0.32774 0.229097 3.5173 -0.309649 -0.534624 3.48401 -0.326584 0.0219649 3.52467 -1.04451 16.3469 -7.81995 0.233814 35.5698 -6.75211 -0.0 0.0 -0.0 -4.56298 14.906 -5.61615 4.92716 -12.8123 69.78 1.72056 -40.4379 0.63373 26.6308 0.15814 -3.36772 -2.23493 25.8249 -2.29951 -0.0 0.0 -0.0 13.2402 24.8319 -26.3666 -0.797336 11.4554 -70.6546 0.206754 5.84798 -0.0105605 35.4211 0.132766 4.45163 2.07531 6.9723 -11.1178 0.0 0.0 0.0 -1.06798 27.6981 -5.83991 -34.8088 -0.169953 5.25807 34.7155 11.1654 -4.39123 3.0397 -0.0 -0.0 -0.0 0.0 -0.0 -10.6338 11.3301 0.254106 6.91823 0.346046 1.0042 41.3394 -1.72189 4.97883 -19.105 0.0 0.0 0.0 0.0 0.0 
3449.5827992 704.424 -1603.06976116 19.4648951002 80.0044772735 -25.0861520874 -0.34476 0.8912 3.48507 -0.338252 0.667773 3.53463 -0.292274 -0.108075 3.59546 -0.310015 0.460748 3.56749 -1.23576 16.1339 -7.5086 -0.0513078 34.963 -6.3502 -0.0 0.0 -0.0 -4.70206 17.7391 -5.16119 1.20859 -9.35161 69.0331 1.41871 -35.0971 0.448662 23.9092 0.214125 -3.02459 -2.06358 24.791 -1.85035 -0.0 0.0 -0.0 13.7973 25.2343 -27.6202 5.54526 12.8547 -70.7996 0.186182 5.26956 -0.00856775 34.409 0.0908325 4.32924 2.46473 5.99522 -14.2291 0.0 0.0 0.0 4.27421 26.5741 -4.68204 -44.3883 -0.769288 6.60139 36.5184 10.4455 -4.56109 7.82034 -0.0 -0.0 -0.0 0.0 -0.0 -12.9465 11.5297 0.981903 6.12278 0.300103 0.89091 41.0573 -4.70058 4.94808 -20.5908 0.0 0.0 0.0 0.0 0.0 
